<svg xmlns="http://www.w3.org/2000/svg" viewBox="0 0 1440 320"><path fill="#e7008a" d="M0 32l11.4 48C22.9 128 46 224 69 224c22.4 0 45-96 68-122.7C160 75 183 117 206 128c22.6 11 45-11 68-10.7 23.1-.3 46 21.7 69 42.7 22.7 21 46 43 68 37.3 23.3-5.3 46-37.3 69-48 22.9-10.3 46-.3 69-16C571.4 117 594 75 617 64s46 11 69 42.7C708.6 139 731 181 754 208c23.1 27 46 37 69 37.3 22.7-.3 46-10.3 68-16 23.3-5.3 46-5.3 69-10.6 22.9-5.7 46-15.7 69-42.7 22.4-27 45-69 68-69.3 23 .3 46 42.3 69 48 22.6 5.3 45-26.7 68-10.7 23.1 16 46 80 69 64 22.7-16 46-112 68-160 23.3-48 46-48 58-48h11H0z"/></svg>