<?xml version="1.0" standalone="no"?><svg xmlns="http://www.w3.org/2000/svg" viewBox="0 0 1440 320"><path fill="#e7008a" fill-opacity="1" d="M0,32L11.4,80C22.9,128,46,224,69,224C91.4,224,114,128,137,101.3C160,75,183,117,206,128C228.6,139,251,117,274,117.3C297.1,117,320,139,343,160C365.7,181,389,203,411,197.3C434.3,192,457,160,480,149.3C502.9,139,526,149,549,133.3C571.4,117,594,75,617,64C640,53,663,75,686,106.7C708.6,139,731,181,754,208C777.1,235,800,245,823,245.3C845.7,245,869,235,891,229.3C914.3,224,937,224,960,218.7C982.9,213,1006,203,1029,176C1051.4,149,1074,107,1097,106.7C1120,107,1143,149,1166,154.7C1188.6,160,1211,128,1234,144C1257.1,160,1280,224,1303,208C1325.7,192,1349,96,1371,48C1394.3,0,1417,0,1429,0L1440,0L1440,0L1428.6,0C1417.1,0,1394,0,1371,0C1348.6,0,1326,0,1303,0C1280,0,1257,0,1234,0C1211.4,0,1189,0,1166,0C1142.9,0,1120,0,1097,0C1074.3,0,1051,0,1029,0C1005.7,0,983,0,960,0C937.1,0,914,0,891,0C868.6,0,846,0,823,0C800,0,777,0,754,0C731.4,0,709,0,686,0C662.9,0,640,0,617,0C594.3,0,571,0,549,0C525.7,0,503,0,480,0C457.1,0,434,0,411,0C388.6,0,366,0,343,0C320,0,297,0,274,0C251.4,0,229,0,206,0C182.9,0,160,0,137,0C114.3,0,91,0,69,0C45.7,0,23,0,11,0L0,0Z"></path></svg>